<?xml version="1.0" encoding="utf-8"?>
<?xml-stylesheet type="text/xsl" href="rss1.xsl"?>
<rss version="2.0" xmlns:atom="http://www.w3.org/2005/Atom" xmlns:content="http://purl.org/rss/1.0/modules/content/" xmlns:dc="http://purl.org/dc/elements/1.1/" xmlns:media="http://search.yahoo.com/mrss/">
<channel>
 <title>Getty</title>
 <link>http://www.gettyimg.com/</link>
 <atom:link href="http://www.gettyimg.com/" rel="self" type="application/rss+xml" />

 
                <item>
                <title><![CDATA[【Singles (lossy)】Dolby Atmos - Billie Eilish - Billie Eilish Live at the Steve Jobs Theater [E-AC3-JOC | 16bits/48kHz | 5.1 | 768kbits]]]></title>
                <link><![CDATA[https://sharemania.us/threads/billie-eilish-billie-eilish-live-at-the-steve-jobs-theater-e-ac3-joc-16bits-48khz-5-1-768kbits.242249/]]></link>
                <description><![CDATA[<article>
<blockquote class="messageText SelectQuoteContainer ugc baseHtml">
<img src="https://a5.mzstatic.com/us/r1000/0/Music112/v4/27/86/c9/2786c931-ed1e-0c6e-d162-8caca36fa566/19UM1IM13641.rgb.jpg" class="bbCodeImage LbImage" alt="[​IMG]" data-url="https://a5.mzstatic.com/us/r1000/0/Music112/v4/27/86/c9/2786c931-ed1e-0c6e-d162-8caca36fa566/19UM1IM13641.rgb.jpg" style=""> <br>
<b><span style="font-family: 'Book Antiqua'"><br>
Artist</span></b><span style="font-family: 'Book Antiqua'">: Billie Eilish<br>
<b>Single</b>: Billie Eilish Live at the Steve Jobs Theater<br>
<b>Release</b>: 19/12/2019</span><br>
<b><span style="font-family: 'Book Antiqua'">Format</span></b><span style="font-family: 'Book Antiqua'">: .m4a Enhanced AC-3 with Joint Object Coding<br>
<b>Sample Rate</b>: 768 Kbps, 48.000 kHz - 5.1 Surround Sound<br>
<b>Quality</b>: High Quality, Lossy Audio, Apple Core Media Audio<br>
<b>Source</b>: <a href="https://music.apple.com/fr/album/billie-eilish-live-at-the-steve-jobs-theater-single/1492126606" target="_blank" class="externalLink" rel="nofollow">Apple Music</a><br>
</span><br>
<div class="bbCodeBlock bbCodeVfcHH HiddenContent">
<div class="attribution type">Hidden Content:</div>
<blockquote>You must reply before you can see the hidden data contained here.</blockquote>
</div>
<div class="messageTextEndMarker">&nbsp;</div>
</blockquote>
</article>]]></description>
                <author><![CDATA[SonMaxime]]></author>
                </item>

                
                <item>
                <title><![CDATA[【Apple Music】WEB-RiP - Selena Gomez - Love On [Apple HD Music Video]]]></title>
                <link><![CDATA[https://sharemania.us/threads/selena-gomez-love-on-apple-hd-music-video.242248/]]></link>
                <description><![CDATA[<article>
<blockquote class="messageText SelectQuoteContainer ugc baseHtml">
<span style="font-size: 22px"><b>Selena Gomez - Love On [Apple HD Music Video]</b></span><br>
<br>
<img src="https://imgur.com/twB2KiI.jpg" class="bbCodeImage LbImage" alt="[​IMG]" data-url="https://imgur.com/twB2KiI.jpg" style=""><br>
<br>
<div class="bbCodeBlock bbCodeCode">
<div class="type">Code:</div>
<pre>General
Format                         : MPEG-4
Codec ID                       : M4V  (isom/iso4/M4V /mp42)
File size                      : 156 MiB
Duration                       : 3 min 10 s
Overall bit rate mode          : Variable
Overall bit rate               : 6 848 kb/s
Movie name                     : Love On
Performer                      : Selena Gomez
Genre                          : Pop
ContentType                    : Music Video
Recorded date                  : UTC 2024-02-22 08:00:00
Encoded date                   : UTC 2024-03-20 22:07:19
Tagged date                    : UTC 2024-03-20 22:07:19
Copyright                      : ℗ 2024 Interscope Records
Cover                          : Yes
Rating                         : None
GenreID                        : 1614
AppleStoreCountry              : Canada
AlbumTitleID                   : 280215834
AppleStoreCatalogID            : 1731997373

Video
ID                             : 2
Format                         : AVC
Format/Info                    : Advanced Video Codec
Format profile                 : High@L4
Format settings                : CABAC / 4 Ref Frames
Format settings, CABAC         : Yes
Format settings, Reference fra : 4 frames
Codec ID                       : avc1
Codec ID/Info                  : Advanced Video Coding
Duration                       : 3 min 10 s
Bit rate                       : 6 563 kb/s
Maximum bit rate               : 13.6 Mb/s
Width                          : 1 920 pixels
Height                         : 1 080 pixels
Display aspect ratio           : 16:9
Frame rate mode                : Constant
Frame rate                     : 23.976 (24000/1001) FPS
Color space                    : YUV
Chroma subsampling             : 4:2:0
Bit depth                      : 8 bits
Scan type                      : Progressive
Bits/(Pixel*Frame)             : 0.132
Stream size                    : 149 MiB (96%)
Title                          : Core Media Video
Language                       : English
Encoded date                   : UTC 2024-03-01 00:22:07
Tagged date                    : UTC 2024-03-20 22:07:23
Color range                    : Limited
Color primaries                : BT.709
Transfer characteristics       : BT.709
Matrix coefficients            : BT.709
Codec configuration box        : avcC

Audio
ID                             : 1
Format                         : AAC LC
Format/Info                    : Advanced Audio Codec Low Complexity
Codec ID                       : mp4a-40-2
Duration                       : 3 min 10 s
Duration_LastFrame             : -18 ms
Bit rate mode                  : Variable
Bit rate                       : 265 kb/s
Maximum bit rate               : 424 kb/s
Channel(s)                     : 2 channels
Channel layout                 : L R
Sampling rate                  : 48.0 kHz
Frame rate                     : 46.875 FPS (1024 SPF)
Compression mode               : Lossy
Stream size                    : 6.09 MiB (4%)
Title                          : Core Media Audio
Encoded date                   : UTC 2024-03-01 00:15:08
Tagged date                    : UTC 2024-03-20 22:07:23

Text
ID                             : 3
Format                         : EIA-608
Codec ID                       : c608
Duration                       : 3 min 9 s
Bit rate mode                  : Variable
Bit rate                       : 205 b/s
Maximum bit rate               : 1 680 b/s
Frame rate                     : 0.453 FPS
Stream size                    : 4.76 KiB (0%)
Title                          : Core Media Closed Caption
Language                       : English
Forced                         : No
Encoded date                   : UTC 2024-03-01 00:22:07
Tagged date                    : UTC 2024-03-20 22:07:23
</pre>
</div>
<div class="bbCodeBlock bbCodeVfcHH HiddenContent">
<div class="attribution type">Hidden Content:</div>
<blockquote>You must reply before you can see the hidden data contained here.</blockquote>
</div>
<div class="messageTextEndMarker">&nbsp;</div>
</blockquote>
</article>]]></description>
                <author><![CDATA[abby0511]]></author>
                </item>

                </channel></rss>